<svg version="1.0" xmlns="http://www.w3.org/2000/svg"
viewBox="0 0 1280 1280"
preserveAspectRatio="xMidYMin meet">

<g transform="translate(0,1280) scale(0.100000,-0.100000)"
fill="#000000" stroke="none">
<path d="M0 6400 l0 -6400 6400 0 6400 0 0 6400 0 6400 -6400 0 -6400 0 0
-6400z m6695 2029 c394 -49 723 -181 1007 -404 l63 -50 -95 -3 c-52 -2 -178 0
-279 3 l-183 7 -66 45 c-145 100 -342 182 -512 214 -99 19 -407 15 -505 -6
-355 -76 -619 -260 -836 -582 -100 -148 -204 -383 -253 -571 -19 -74 -19 -85
-6 -106 8 -14 105 -124 215 -246 110 -121 273 -303 363 -403 90 -100 238 -264
329 -364 91 -100 174 -194 184 -210 11 -16 19 -45 18 -68 l0 -40 -96 100 c-52
55 -149 161 -214 235 -65 74 -155 176 -200 225 -45 50 -148 164 -229 255 -81
91 -190 212 -241 268 -52 57 -133 148 -180 202 -48 55 -131 148 -185 207 -55
60 -189 210 -299 333 -110 123 -229 256 -263 295 -35 38 -73 82 -84 98 l-19
27 40 0 c39 0 42 -3 227 -210 103 -115 190 -210 194 -210 3 0 43 53 87 119
318 462 779 749 1338 831 182 27 501 31 680 9z m397 -569 c226 -44 298 -81
339 -171 l24 -54 0 -1155 c0 -908 -3 -1164 -13 -1197 -33 -110 -118 -154 -386
-198 -82 -14 -100 -15 -107 -3 -13 20 -11 74 4 87 8 6 60 20 116 31 193 39
275 88 302 180 20 64 21 2143 1 2206 -26 88 -122 141 -305 171 -56 9 -108 20
-114 26 -14 10 -17 64 -7 92 5 11 13 15 28 10 11 -3 65 -14 118 -25z m-272
-29 c0 -21 -6 -43 -12 -49 -7 -6 -62 -19 -123 -30 -208 -38 -289 -87 -319
-195 -21 -76 -22 -105 -55 -2021 -6 -337 -13 -502 -20 -509 -14 -14 -15 384
-1 857 5 188 14 631 21 986 13 769 16 797 101 876 57 54 142 86 293 110 121
18 115 20 115 -25z m-1025 14 c166 -35 266 -89 305 -166 29 -56 25 -65 -15
-30 -19 17 -48 37 -63 45 -28 14 -158 47 -272 69 -52 10 -67 17 -79 38 -32 58
0 70 124 44z m-2176 -66 c40 -22 58 -48 25 -35 -9 4 -47 11 -84 16 -91 13
-100 17 -100 50 l0 28 59 -18 c32 -9 77 -28 100 -41z m5175 27 c127 -29 264
-108 315 -182 13 -18 40 -103 64 -197 47 -186 46 -197 -24 -197 -44 0 -52 9
-94 109 -78 188 -217 315 -401 367 -81 23 -651 34 -638 13 4 -8 31 -45 59 -84
194 -265 294 -528 364 -954 6 -35 13 -66 16 -69 3 -3 28 5 57 19 86 40 128
120 164 309 9 47 20 91 26 98 14 16 69 15 93 -1 16 -13 17 -24 12 -118 -9
-158 -33 -216 -112 -271 -75 -52 -128 -58 -477 -58 l-318 0 0 520 c0 499 1
521 20 574 30 79 75 114 175 140 11 3 157 3 325 1 233 -2 321 -7 374 -19z
m-4732 -512 c20 -25 21 -30 12 -717 -5 -381 -9 -800 -9 -932 0 -233 1 -241 24
-289 39 -79 119 -119 306 -152 125 -23 125 -23 136 -51 14 -38 3 -72 -28 -84
-51 -19 -399 46 -487 92 -63 32 -105 78 -122 134 -23 73 -22 196 16 1575 5
201 13 411 16 467 l6 102 55 -59 c30 -33 64 -71 75 -86z m517 -580 c58 -66
161 -181 228 -256 66 -75 127 -146 133 -159 7 -13 19 -88 27 -168 47 -502 218
-907 498 -1186 224 -222 472 -337 794 -366 391 -36 743 77 1020 326 70 63 70
63 143 69 140 10 463 15 476 7 25 -15 -217 -219 -365 -308 -333 -198 -676
-283 -1141 -283 -466 0 -796 81 -1130 276 -299 175 -592 494 -730 794 -140
305 -202 590 -202 935 0 208 23 422 56 515 6 16 10 12 193 -196z m3948 -264
c125 -14 195 -55 239 -141 39 -78 61 -288 32 -317 -16 -16 -83 -15 -96 1 -5 6
-20 62 -32 122 -24 118 -62 214 -102 257 -29 30 -102 70 -112 61 -3 -4 -6 -47
-6 -97 0 -122 -24 -323 -56 -465 -44 -195 -115 -373 -225 -563 -22 -36 -39
-69 -39 -73 0 -4 109 -5 243 -2 278 4 324 14 481 94 199 104 302 202 440 421
22 35 32 42 58 42 33 0 68 -24 68 -47 0 -22 -137 -330 -159 -359 -47 -60 -180
-144 -307 -194 -143 -57 -208 -65 -549 -65 -334 0 -369 4 -425 52 -17 14 -41
44 -53 67 -22 41 -22 45 -25 615 -1 316 0 581 2 588 4 10 62 13 273 13 147 0
305 -4 350 -10z m-4942 -1257 c-62 -48 -205 -90 -205 -61 0 34 26 49 120 66
52 10 97 17 100 14 3 -2 -4 -11 -15 -19z"/>
</g>
</svg>
